<svg width="4260" height="320" viewBox="0 0 426 32" fill="none" xmlns="http://www.w3.org/2000/svg">
<!-- <mask id="path-1-outside-1" maskUnits="userSpaceOnUse" x="-0.720001" y="0.76001" width="427" height="31" fill="black">
<rect fill="white" x="-0.720001" y="0.76001" width="427" height="31"/>
<path d="M10.92 30.28C9.08 30.28 7.42667 29.96 5.96 29.32C4.52 28.6533 3.38667 27.7467 2.56 26.6C1.73333 25.4267 1.30667 24.08 1.28 22.56H5.16C5.29333 23.8667 5.82667 24.9733 6.76 25.88C7.72 26.76 9.10666 27.2 10.92 27.2C12.6533 27.2 14.0133 26.7733 15 25.92C16.0133 25.04 16.52 23.92 16.52 22.56C16.52 21.4933 16.2267 20.6267 15.64 19.96C15.0533 19.2933 14.32 18.7867 13.44 18.44C12.56 18.0933 11.3733 17.72 9.88 17.32C8.04 16.84 6.56 16.36 5.44 15.88C4.34667 15.4 3.4 14.6533 2.6 13.64C1.82667 12.6 1.44 11.2133 1.44 9.48001C1.44 7.96001 1.82667 6.61334 2.6 5.44001C3.37333 4.26668 4.45333 3.36001 5.84 2.72001C7.25333 2.08001 8.86667 1.76001 10.68 1.76001C13.2933 1.76001 15.4267 2.41334 17.08 3.72001C18.76 5.02668 19.7067 6.76001 19.92 8.92001H15.92C15.7867 7.85334 15.2267 6.92001 14.24 6.12001C13.2533 5.29334 11.9467 4.88001 10.32 4.88001C8.8 4.88001 7.56 5.28001 6.6 6.08001C5.64 6.85334 5.16 7.94668 5.16 9.36001C5.16 10.3733 5.44 11.2 6 11.84C6.58667 12.48 7.29333 12.9733 8.12 13.32C8.97333 13.64 10.16 14.0133 11.68 14.44C13.52 14.9467 15 15.4533 16.12 15.96C17.24 16.44 18.2 17.2 19 18.24C19.8 19.2533 20.2 20.64 20.2 22.4C20.2 23.76 19.84 25.04 19.12 26.24C18.4 27.44 17.3333 28.4133 15.92 29.16C14.5067 29.9067 12.84 30.28 10.92 30.28Z"/>
<path d="M29.1966 5.08001V14.4H39.3566V17.4H29.1966V27H40.5566V30H25.5566V2.08001H40.5566V5.08001H29.1966Z"/>
<path d="M60.0244 15.64C61.0377 15.8 61.9577 16.2133 62.7844 16.88C63.6377 17.5467 64.3044 18.3733 64.7844 19.36C65.291 20.3467 65.5444 21.4 65.5444 22.52C65.5444 23.9333 65.1844 25.2133 64.4644 26.36C63.7444 27.48 62.691 28.3733 61.3044 29.04C59.9444 29.68 58.331 30 56.4644 30H46.0644V2.12001H56.0644C57.9577 2.12001 59.571 2.44001 60.9044 3.08001C62.2377 3.69334 63.2377 4.53334 63.9044 5.60001C64.571 6.66668 64.9044 7.86668 64.9044 9.20001C64.9044 10.8533 64.451 12.2267 63.5444 13.32C62.6644 14.3867 61.491 15.16 60.0244 15.64ZM49.7044 14.16H55.8244C57.531 14.16 58.851 13.76 59.7844 12.96C60.7177 12.16 61.1844 11.0533 61.1844 9.64001C61.1844 8.22668 60.7177 7.12001 59.7844 6.32001C58.851 5.52001 57.5044 5.12001 55.7444 5.12001H49.7044V14.16ZM56.1444 27C57.9577 27 59.371 26.5733 60.3844 25.72C61.3977 24.8667 61.9044 23.68 61.9044 22.16C61.9044 20.6133 61.371 19.4 60.3044 18.52C59.2377 17.6133 57.811 17.16 56.0244 17.16H49.7044V27H56.1444Z"/>
<path d="M87.0756 23.8H74.9156L72.6756 30H68.8356L78.9156 2.28001H83.1156L93.1556 30H89.3156L87.0756 23.8ZM86.0356 20.84L80.9956 6.76001L75.9556 20.84H86.0356Z"/>
<path d="M106.389 30.28C104.549 30.28 102.895 29.96 101.429 29.32C99.9887 28.6533 98.8554 27.7467 98.0287 26.6C97.2021 25.4267 96.7754 24.08 96.7487 22.56H100.629C100.762 23.8667 101.295 24.9733 102.229 25.88C103.189 26.76 104.575 27.2 106.389 27.2C108.122 27.2 109.482 26.7733 110.469 25.92C111.482 25.04 111.989 23.92 111.989 22.56C111.989 21.4933 111.695 20.6267 111.109 19.96C110.522 19.2933 109.789 18.7867 108.909 18.44C108.029 18.0933 106.842 17.72 105.349 17.32C103.509 16.84 102.029 16.36 100.909 15.88C99.8154 15.4 98.8687 14.6533 98.0687 13.64C97.2954 12.6 96.9088 11.2133 96.9088 9.48001C96.9088 7.96001 97.2954 6.61334 98.0687 5.44001C98.8421 4.26668 99.9221 3.36001 101.309 2.72001C102.722 2.08001 104.335 1.76001 106.149 1.76001C108.762 1.76001 110.895 2.41334 112.549 3.72001C114.229 5.02668 115.175 6.76001 115.389 8.92001H111.389C111.255 7.85334 110.695 6.92001 109.709 6.12001C108.722 5.29334 107.415 4.88001 105.789 4.88001C104.269 4.88001 103.029 5.28001 102.069 6.08001C101.109 6.85334 100.629 7.94668 100.629 9.36001C100.629 10.3733 100.909 11.2 101.469 11.84C102.055 12.48 102.762 12.9733 103.589 13.32C104.442 13.64 105.629 14.0133 107.149 14.44C108.989 14.9467 110.469 15.4533 111.589 15.96C112.709 16.44 113.669 17.2 114.469 18.24C115.269 19.2533 115.669 20.64 115.669 22.4C115.669 23.76 115.309 25.04 114.589 26.24C113.869 27.44 112.802 28.4133 111.389 29.16C109.975 29.9067 108.309 30.28 106.389 30.28Z"/>
<path d="M138.185 2.12001V5.08001H130.585V30H126.945V5.08001H119.305V2.12001H138.185Z"/>
<path d="M146.306 2.12001V30H142.666V2.12001H146.306Z"/>
<path d="M168.99 23.8H156.83L154.59 30H150.75L160.83 2.28001H165.03L175.07 30H171.23L168.99 23.8ZM167.95 20.84L162.91 6.76001L157.87 20.84H167.95Z"/>
<path d="M201.383 30H197.743L183.103 7.80001V30H179.463V2.08001H183.103L197.743 24.24V2.08001H201.383V30Z"/>
<path d="M239.372 10.2C238.599 8.57334 237.479 7.32001 236.012 6.44001C234.545 5.53334 232.839 5.08001 230.892 5.08001C228.945 5.08001 227.185 5.53334 225.612 6.44001C224.065 7.32001 222.839 8.60001 221.932 10.28C221.052 11.9333 220.612 13.8533 220.612 16.04C220.612 18.2267 221.052 20.1467 221.932 21.8C222.839 23.4533 224.065 24.7333 225.612 25.64C227.185 26.52 228.945 26.96 230.892 26.96C233.612 26.96 235.852 26.1467 237.612 24.52C239.372 22.8933 240.399 20.6933 240.692 17.92H229.572V14.96H244.572V17.76C244.359 20.0533 243.639 22.16 242.412 24.08C241.185 25.9733 239.572 27.48 237.572 28.6C235.572 29.6933 233.345 30.24 230.892 30.24C228.305 30.24 225.945 29.64 223.812 28.44C221.679 27.2133 219.985 25.52 218.732 23.36C217.505 21.2 216.892 18.76 216.892 16.04C216.892 13.32 217.505 10.88 218.732 8.72001C219.985 6.53334 221.679 4.84001 223.812 3.64001C225.945 2.41334 228.305 1.80001 230.892 1.80001C233.852 1.80001 236.465 2.53334 238.732 4.00001C241.025 5.46668 242.692 7.53334 243.732 10.2H239.372Z"/>
<path d="M264.065 30L257.425 18.6H253.025V30H249.385V2.12001H258.385C260.491 2.12001 262.265 2.48001 263.705 3.20001C265.171 3.92001 266.265 4.89334 266.985 6.12001C267.705 7.34668 268.065 8.74668 268.065 10.32C268.065 12.24 267.505 13.9333 266.385 15.4C265.291 16.8667 263.638 17.84 261.425 18.32L268.425 30H264.065ZM253.025 15.68H258.385C260.358 15.68 261.838 15.2 262.825 14.24C263.811 13.2533 264.305 11.9467 264.305 10.32C264.305 8.66668 263.811 7.38668 262.825 6.48001C261.865 5.57334 260.385 5.12001 258.385 5.12001H253.025V15.68Z"/>
<path d="M290.201 23.8H278.041L275.801 30H271.961L282.041 2.28001H286.241L296.281 30H292.441L290.201 23.8ZM289.161 20.84L284.121 6.76001L279.081 20.84H289.161Z"/>
<path d="M322.594 30H318.954L304.314 7.80001V30H300.674V2.08001H304.314L318.954 24.24V2.08001H322.594V30Z"/>
<path d="M332.439 27.04H342.199V30H328.799V2.12001H332.439V27.04Z"/>
<path d="M349.624 2.12001V19.76C349.624 22.24 350.224 24.08 351.424 25.28C352.651 26.48 354.344 27.08 356.504 27.08C358.638 27.08 360.304 26.48 361.504 25.28C362.731 24.08 363.344 22.24 363.344 19.76V2.12001H366.984V19.72C366.984 22.04 366.518 24 365.584 25.6C364.651 27.1733 363.384 28.3467 361.784 29.12C360.211 29.8933 358.438 30.28 356.464 30.28C354.491 30.28 352.704 29.8933 351.104 29.12C349.531 28.3467 348.278 27.1733 347.344 25.6C346.438 24 345.984 22.04 345.984 19.72V2.12001H349.624Z"/>
<path d="M394.977 30H391.337L376.697 7.80001V30H373.057V2.08001H376.697L391.337 24.24V2.08001H394.977V30Z"/>
<path d="M409.862 2.12001C412.902 2.12001 415.528 2.69334 417.742 3.84001C419.982 4.96001 421.688 6.57334 422.862 8.68001C424.062 10.7867 424.662 13.2667 424.662 16.12C424.662 18.9733 424.062 21.4533 422.862 23.56C421.688 25.64 419.982 27.24 417.742 28.36C415.528 29.4533 412.902 30 409.862 30H401.182V2.12001H409.862ZM409.862 27C413.462 27 416.208 26.0533 418.102 24.16C419.995 22.24 420.942 19.56 420.942 16.12C420.942 12.6533 419.982 9.94668 418.062 8.00001C416.168 6.05334 413.435 5.08001 409.862 5.08001H404.822V27H409.862Z"/>
</mask> -->
<path d="M10.92 30.28C9.08 30.28 7.42667 29.96 5.96 29.32C4.52 28.6533 3.38667 27.7467 2.56 26.6C1.73333 25.4267 1.30667 24.08 1.28 22.56H5.16C5.29333 23.8667 5.82667 24.9733 6.76 25.88C7.72 26.76 9.10666 27.2 10.92 27.2C12.6533 27.2 14.0133 26.7733 15 25.92C16.0133 25.04 16.52 23.92 16.52 22.56C16.52 21.4933 16.2267 20.6267 15.64 19.96C15.0533 19.2933 14.32 18.7867 13.44 18.44C12.56 18.0933 11.3733 17.72 9.88 17.32C8.04 16.84 6.56 16.36 5.44 15.88C4.34667 15.4 3.4 14.6533 2.6 13.64C1.82667 12.6 1.44 11.2133 1.44 9.48001C1.44 7.96001 1.82667 6.61334 2.6 5.44001C3.37333 4.26668 4.45333 3.36001 5.84 2.72001C7.25333 2.08001 8.86667 1.76001 10.68 1.76001C13.2933 1.76001 15.4267 2.41334 17.08 3.72001C18.76 5.02668 19.7067 6.76001 19.92 8.92001H15.92C15.7867 7.85334 15.2267 6.92001 14.24 6.12001C13.2533 5.29334 11.9467 4.88001 10.32 4.88001C8.8 4.88001 7.56 5.28001 6.6 6.08001C5.64 6.85334 5.16 7.94668 5.16 9.36001C5.16 10.3733 5.44 11.2 6 11.84C6.58667 12.48 7.29333 12.9733 8.12 13.32C8.97333 13.64 10.16 14.0133 11.68 14.44C13.52 14.9467 15 15.4533 16.12 15.96C17.24 16.44 18.2 17.2 19 18.24C19.8 19.2533 20.2 20.64 20.2 22.4C20.2 23.76 19.84 25.04 19.12 26.24C18.4 27.44 17.3333 28.4133 15.92 29.16C14.5067 29.9067 12.84 30.28 10.92 30.28Z" stroke="white" stroke-width="2" mask="url(#path-1-outside-1)"/>
<path d="M29.1966 5.08001V14.4H39.3566V17.4H29.1966V27H40.5566V30H25.5566V2.08001H40.5566V5.08001H29.1966Z" stroke="white" stroke-width="2" mask="url(#path-1-outside-1)"/>
<path d="M60.0244 15.64C61.0377 15.8 61.9577 16.2133 62.7844 16.88C63.6377 17.5467 64.3044 18.3733 64.7844 19.36C65.291 20.3467 65.5444 21.4 65.5444 22.52C65.5444 23.9333 65.1844 25.2133 64.4644 26.36C63.7444 27.48 62.691 28.3733 61.3044 29.04C59.9444 29.68 58.331 30 56.4644 30H46.0644V2.12001H56.0644C57.9577 2.12001 59.571 2.44001 60.9044 3.08001C62.2377 3.69334 63.2377 4.53334 63.9044 5.60001C64.571 6.66668 64.9044 7.86668 64.9044 9.20001C64.9044 10.8533 64.451 12.2267 63.5444 13.32C62.6644 14.3867 61.491 15.16 60.0244 15.64ZM49.7044 14.16H55.8244C57.531 14.16 58.851 13.76 59.7844 12.96C60.7177 12.16 61.1844 11.0533 61.1844 9.64001C61.1844 8.22668 60.7177 7.12001 59.7844 6.32001C58.851 5.52001 57.5044 5.12001 55.7444 5.12001H49.7044V14.16ZM56.1444 27C57.9577 27 59.371 26.5733 60.3844 25.72C61.3977 24.8667 61.9044 23.68 61.9044 22.16C61.9044 20.6133 61.371 19.4 60.3044 18.52C59.2377 17.6133 57.811 17.16 56.0244 17.16H49.7044V27H56.1444Z" stroke="white" stroke-width="2" mask="url(#path-1-outside-1)"/>
<path d="M87.0756 23.8H74.9156L72.6756 30H68.8356L78.9156 2.28001H83.1156L93.1556 30H89.3156L87.0756 23.8ZM86.0356 20.84L80.9956 6.76001L75.9556 20.84H86.0356Z" stroke="white" stroke-width="2" mask="url(#path-1-outside-1)"/>
<path d="M106.389 30.28C104.549 30.28 102.895 29.96 101.429 29.32C99.9887 28.6533 98.8554 27.7467 98.0287 26.6C97.2021 25.4267 96.7754 24.08 96.7487 22.56H100.629C100.762 23.8667 101.295 24.9733 102.229 25.88C103.189 26.76 104.575 27.2 106.389 27.2C108.122 27.2 109.482 26.7733 110.469 25.92C111.482 25.04 111.989 23.92 111.989 22.56C111.989 21.4933 111.695 20.6267 111.109 19.96C110.522 19.2933 109.789 18.7867 108.909 18.44C108.029 18.0933 106.842 17.72 105.349 17.32C103.509 16.84 102.029 16.36 100.909 15.88C99.8154 15.4 98.8687 14.6533 98.0687 13.64C97.2954 12.6 96.9088 11.2133 96.9088 9.48001C96.9088 7.96001 97.2954 6.61334 98.0687 5.44001C98.8421 4.26668 99.9221 3.36001 101.309 2.72001C102.722 2.08001 104.335 1.76001 106.149 1.76001C108.762 1.76001 110.895 2.41334 112.549 3.72001C114.229 5.02668 115.175 6.76001 115.389 8.92001H111.389C111.255 7.85334 110.695 6.92001 109.709 6.12001C108.722 5.29334 107.415 4.88001 105.789 4.88001C104.269 4.88001 103.029 5.28001 102.069 6.08001C101.109 6.85334 100.629 7.94668 100.629 9.36001C100.629 10.3733 100.909 11.2 101.469 11.84C102.055 12.48 102.762 12.9733 103.589 13.32C104.442 13.64 105.629 14.0133 107.149 14.44C108.989 14.9467 110.469 15.4533 111.589 15.96C112.709 16.44 113.669 17.2 114.469 18.24C115.269 19.2533 115.669 20.64 115.669 22.4C115.669 23.76 115.309 25.04 114.589 26.24C113.869 27.44 112.802 28.4133 111.389 29.16C109.975 29.9067 108.309 30.28 106.389 30.28Z" stroke="white" stroke-width="2" mask="url(#path-1-outside-1)"/>
<path d="M138.185 2.12001V5.08001H130.585V30H126.945V5.08001H119.305V2.12001H138.185Z" stroke="white" stroke-width="2" mask="url(#path-1-outside-1)"/>
<path d="M146.306 2.12001V30H142.666V2.12001H146.306Z" stroke="white" stroke-width="2" mask="url(#path-1-outside-1)"/>
<path d="M168.99 23.8H156.83L154.59 30H150.75L160.83 2.28001H165.03L175.07 30H171.23L168.99 23.8ZM167.95 20.84L162.91 6.76001L157.87 20.84H167.95Z" stroke="white" stroke-width="2" mask="url(#path-1-outside-1)"/>
<path d="M201.383 30H197.743L183.103 7.80001V30H179.463V2.08001H183.103L197.743 24.24V2.08001H201.383V30Z" stroke="white" stroke-width="2" mask="url(#path-1-outside-1)"/>
<path d="M239.372 10.2C238.599 8.57334 237.479 7.32001 236.012 6.44001C234.545 5.53334 232.839 5.08001 230.892 5.08001C228.945 5.08001 227.185 5.53334 225.612 6.44001C224.065 7.32001 222.839 8.60001 221.932 10.28C221.052 11.9333 220.612 13.8533 220.612 16.04C220.612 18.2267 221.052 20.1467 221.932 21.8C222.839 23.4533 224.065 24.7333 225.612 25.64C227.185 26.52 228.945 26.96 230.892 26.96C233.612 26.96 235.852 26.1467 237.612 24.52C239.372 22.8933 240.399 20.6933 240.692 17.92H229.572V14.96H244.572V17.76C244.359 20.0533 243.639 22.16 242.412 24.08C241.185 25.9733 239.572 27.48 237.572 28.6C235.572 29.6933 233.345 30.24 230.892 30.24C228.305 30.24 225.945 29.64 223.812 28.44C221.679 27.2133 219.985 25.52 218.732 23.36C217.505 21.2 216.892 18.76 216.892 16.04C216.892 13.32 217.505 10.88 218.732 8.72001C219.985 6.53334 221.679 4.84001 223.812 3.64001C225.945 2.41334 228.305 1.80001 230.892 1.80001C233.852 1.80001 236.465 2.53334 238.732 4.00001C241.025 5.46668 242.692 7.53334 243.732 10.2H239.372Z" stroke="white" stroke-width="2" mask="url(#path-1-outside-1)"/>
<path d="M264.065 30L257.425 18.6H253.025V30H249.385V2.12001H258.385C260.491 2.12001 262.265 2.48001 263.705 3.20001C265.171 3.92001 266.265 4.89334 266.985 6.12001C267.705 7.34668 268.065 8.74668 268.065 10.32C268.065 12.24 267.505 13.9333 266.385 15.4C265.291 16.8667 263.638 17.84 261.425 18.32L268.425 30H264.065ZM253.025 15.68H258.385C260.358 15.68 261.838 15.2 262.825 14.24C263.811 13.2533 264.305 11.9467 264.305 10.32C264.305 8.66668 263.811 7.38668 262.825 6.48001C261.865 5.57334 260.385 5.12001 258.385 5.12001H253.025V15.68Z" stroke="white" stroke-width="2" mask="url(#path-1-outside-1)"/>
<path d="M290.201 23.8H278.041L275.801 30H271.961L282.041 2.28001H286.241L296.281 30H292.441L290.201 23.8ZM289.161 20.84L284.121 6.76001L279.081 20.84H289.161Z" stroke="white" stroke-width="2" mask="url(#path-1-outside-1)"/>
<path d="M322.594 30H318.954L304.314 7.80001V30H300.674V2.08001H304.314L318.954 24.24V2.08001H322.594V30Z" stroke="white" stroke-width="2" mask="url(#path-1-outside-1)"/>
<path d="M332.439 27.04H342.199V30H328.799V2.12001H332.439V27.04Z" stroke="white" stroke-width="2" mask="url(#path-1-outside-1)"/>
<path d="M349.624 2.12001V19.76C349.624 22.24 350.224 24.08 351.424 25.28C352.651 26.48 354.344 27.08 356.504 27.08C358.638 27.08 360.304 26.48 361.504 25.28C362.731 24.08 363.344 22.24 363.344 19.76V2.12001H366.984V19.72C366.984 22.04 366.518 24 365.584 25.6C364.651 27.1733 363.384 28.3467 361.784 29.12C360.211 29.8933 358.438 30.28 356.464 30.28C354.491 30.28 352.704 29.8933 351.104 29.12C349.531 28.3467 348.278 27.1733 347.344 25.6C346.438 24 345.984 22.04 345.984 19.72V2.12001H349.624Z" stroke="white" stroke-width="2" mask="url(#path-1-outside-1)"/>
<path d="M394.977 30H391.337L376.697 7.80001V30H373.057V2.08001H376.697L391.337 24.24V2.08001H394.977V30Z" stroke="white" stroke-width="2" mask="url(#path-1-outside-1)"/>
<path d="M409.862 2.12001C412.902 2.12001 415.528 2.69334 417.742 3.84001C419.982 4.96001 421.688 6.57334 422.862 8.68001C424.062 10.7867 424.662 13.2667 424.662 16.12C424.662 18.9733 424.062 21.4533 422.862 23.56C421.688 25.64 419.982 27.24 417.742 28.36C415.528 29.4533 412.902 30 409.862 30H401.182V2.12001H409.862ZM409.862 27C413.462 27 416.208 26.0533 418.102 24.16C419.995 22.24 420.942 19.56 420.942 16.12C420.942 12.6533 419.982 9.94668 418.062 8.00001C416.168 6.05334 413.435 5.08001 409.862 5.08001H404.822V27H409.862Z" stroke="white" stroke-width="2" mask="url(#path-1-outside-1)"/>
</svg>