<svg width="1123" height="85" viewBox="0 0 1123 85" fill="none" xmlns="http://www.w3.org/2000/svg">
<mask id="path-1-outside-1" maskUnits="userSpaceOnUse" x="0" y="0" width="1123" height="85" fill="black">
<rect fill="white" width="1123" height="85"/>
<path d="M31.305 79.865C26.475 79.865 22.135 79.025 18.285 77.345C14.505 75.595 11.53 73.215 9.36 70.205C7.19 67.125 6.07 63.59 6 59.6H16.185C16.535 63.03 17.935 65.935 20.385 68.315C22.905 70.625 26.545 71.78 31.305 71.78C35.855 71.78 39.425 70.66 42.015 68.42C44.675 66.11 46.005 63.17 46.005 59.6C46.005 56.8 45.235 54.525 43.695 52.775C42.155 51.025 40.23 49.695 37.92 48.785C35.61 47.875 32.495 46.895 28.575 45.845C23.745 44.585 19.86 43.325 16.92 42.065C14.05 40.805 11.565 38.845 9.465 36.185C7.435 33.455 6.42 29.815 6.42 25.265C6.42 21.275 7.435 17.74 9.465 14.66C11.495 11.58 14.33 9.2 17.97 7.52C21.68 5.84 25.915 5 30.675 5C37.535 5 43.135 6.715 47.475 10.145C51.885 13.575 54.37 18.125 54.93 23.795H44.43C44.08 20.995 42.61 18.545 40.02 16.445C37.43 14.275 34 13.19 29.73 13.19C25.74 13.19 22.485 14.24 19.965 16.34C17.445 18.37 16.185 21.24 16.185 24.95C16.185 27.61 16.92 29.78 18.39 31.46C19.93 33.14 21.785 34.435 23.955 35.345C26.195 36.185 29.31 37.165 33.3 38.285C38.13 39.615 42.015 40.945 44.955 42.275C47.895 43.535 50.415 45.53 52.515 48.26C54.615 50.92 55.665 54.56 55.665 59.18C55.665 62.75 54.72 66.11 52.83 69.26C50.94 72.41 48.14 74.965 44.43 76.925C40.72 78.885 36.345 79.865 31.305 79.865Z"/>
<path d="M79.281 13.715V38.18H105.951V46.055H79.281V71.255H109.101V79.13H69.726V5.84H109.101V13.715H79.281Z"/>
<path d="M160.204 41.435C162.864 41.855 165.279 42.94 167.449 44.69C169.689 46.44 171.439 48.61 172.699 51.2C174.029 53.79 174.694 56.555 174.694 59.495C174.694 63.205 173.749 66.565 171.859 69.575C169.969 72.515 167.204 74.86 163.564 76.61C159.994 78.29 155.759 79.13 150.859 79.13H123.559V5.945H149.809C154.779 5.945 159.014 6.785 162.514 8.465C166.014 10.075 168.639 12.28 170.389 15.08C172.139 17.88 173.014 21.03 173.014 24.53C173.014 28.87 171.824 32.475 169.444 35.345C167.134 38.145 164.054 40.175 160.204 41.435ZM133.114 37.55H149.179C153.659 37.55 157.124 36.5 159.574 34.4C162.024 32.3 163.249 29.395 163.249 25.685C163.249 21.975 162.024 19.07 159.574 16.97C157.124 14.87 153.589 13.82 148.969 13.82H133.114V37.55ZM150.019 71.255C154.779 71.255 158.489 70.135 161.149 67.895C163.809 65.655 165.139 62.54 165.139 58.55C165.139 54.49 163.739 51.305 160.939 48.995C158.139 46.615 154.394 45.425 149.704 45.425H133.114V71.255H150.019Z"/>
<path d="M231.214 62.855H199.294L193.414 79.13H183.334L209.794 6.365H220.819L247.174 79.13H237.094L231.214 62.855ZM228.484 55.085L215.254 18.125L202.024 55.085H228.484Z"/>
<path d="M281.91 79.865C277.08 79.865 272.74 79.025 268.89 77.345C265.11 75.595 262.135 73.215 259.965 70.205C257.795 67.125 256.675 63.59 256.605 59.6H266.79C267.14 63.03 268.54 65.935 270.99 68.315C273.51 70.625 277.15 71.78 281.91 71.78C286.46 71.78 290.03 70.66 292.62 68.42C295.28 66.11 296.61 63.17 296.61 59.6C296.61 56.8 295.84 54.525 294.3 52.775C292.76 51.025 290.835 49.695 288.525 48.785C286.215 47.875 283.1 46.895 279.18 45.845C274.35 44.585 270.465 43.325 267.525 42.065C264.655 40.805 262.17 38.845 260.07 36.185C258.04 33.455 257.025 29.815 257.025 25.265C257.025 21.275 258.04 17.74 260.07 14.66C262.1 11.58 264.935 9.2 268.575 7.52C272.285 5.84 276.52 5 281.28 5C288.14 5 293.74 6.715 298.08 10.145C302.49 13.575 304.975 18.125 305.535 23.795H295.035C294.685 20.995 293.215 18.545 290.625 16.445C288.035 14.275 284.605 13.19 280.335 13.19C276.345 13.19 273.09 14.24 270.57 16.34C268.05 18.37 266.79 21.24 266.79 24.95C266.79 27.61 267.525 29.78 268.995 31.46C270.535 33.14 272.39 34.435 274.56 35.345C276.8 36.185 279.915 37.165 283.905 38.285C288.735 39.615 292.62 40.945 295.56 42.275C298.5 43.535 301.02 45.53 303.12 48.26C305.22 50.92 306.27 54.56 306.27 59.18C306.27 62.75 305.325 66.11 303.435 69.26C301.545 72.41 298.745 74.965 295.035 76.925C291.325 78.885 286.95 79.865 281.91 79.865Z"/>
<path d="M365.376 5.945V13.715H345.426V79.13H335.871V13.715H315.816V5.945H365.376Z"/>
<path d="M386.693 5.945V79.13H377.138V5.945H386.693Z"/>
<path d="M446.238 62.855H414.318L408.438 79.13H398.358L424.818 6.365H435.843L462.198 79.13H452.118L446.238 62.855ZM443.508 55.085L430.278 18.125L417.048 55.085H443.508Z"/>
<path d="M531.27 79.13H521.715L483.285 20.855V79.13H473.73V5.84H483.285L521.715 64.01V5.84H531.27V79.13Z"/>
<path d="M630.991 27.155C628.961 22.885 626.021 19.595 622.171 17.285C618.321 14.905 613.841 13.715 608.731 13.715C603.621 13.715 599.001 14.905 594.871 17.285C590.811 19.595 587.591 22.955 585.211 27.365C582.901 31.705 581.746 36.745 581.746 42.485C581.746 48.225 582.901 53.265 585.211 57.605C587.591 61.945 590.811 65.305 594.871 67.685C599.001 69.995 603.621 71.15 608.731 71.15C615.871 71.15 621.751 69.015 626.371 64.745C630.991 60.475 633.686 54.7 634.456 47.42H605.266V39.65H644.641V47C644.081 53.02 642.191 58.55 638.971 63.59C635.751 68.56 631.516 72.515 626.266 75.455C621.016 78.325 615.171 79.76 608.731 79.76C601.941 79.76 595.746 78.185 590.146 75.035C584.546 71.815 580.101 67.37 576.811 61.7C573.591 56.03 571.981 49.625 571.981 42.485C571.981 35.345 573.591 28.94 576.811 23.27C580.101 17.53 584.546 13.085 590.146 9.935C595.746 6.715 601.941 5.105 608.731 5.105C616.501 5.105 623.361 7.03 629.311 10.88C635.331 14.73 639.706 20.155 642.436 27.155H630.991Z"/>
<path d="M695.81 79.13L678.38 49.205H666.83V79.13H657.275V5.945H680.9C686.43 5.945 691.085 6.89 694.865 8.78C698.715 10.67 701.585 13.225 703.475 16.445C705.365 19.665 706.31 23.34 706.31 27.47C706.31 32.51 704.84 36.955 701.9 40.805C699.03 44.655 694.69 47.21 688.88 48.47L707.255 79.13H695.81ZM666.83 41.54H680.9C686.08 41.54 689.965 40.28 692.555 37.76C695.145 35.17 696.44 31.74 696.44 27.47C696.44 23.13 695.145 19.77 692.555 17.39C690.035 15.01 686.15 13.82 680.9 13.82H666.83V41.54Z"/>
<path d="M764.417 62.855H732.497L726.617 79.13H716.537L742.997 6.365H754.022L780.377 79.13H770.297L764.417 62.855ZM761.687 55.085L748.457 18.125L735.227 55.085H761.687Z"/>
<path d="M849.449 79.13H839.894L801.464 20.855V79.13H791.909V5.84H801.464L839.894 64.01V5.84H849.449V79.13Z"/>
<path d="M875.292 71.36H900.912V79.13H865.737V5.945H875.292V71.36Z"/>
<path d="M920.404 5.945V52.25C920.404 58.76 921.979 63.59 925.129 66.74C928.349 69.89 932.794 71.465 938.464 71.465C944.064 71.465 948.439 69.89 951.589 66.74C954.809 63.59 956.419 58.76 956.419 52.25V5.945H965.974V52.145C965.974 58.235 964.749 63.38 962.299 67.58C959.849 71.71 956.524 74.79 952.324 76.82C948.194 78.85 943.539 79.865 938.359 79.865C933.179 79.865 928.489 78.85 924.289 76.82C920.159 74.79 916.869 71.71 914.419 67.58C912.039 63.38 910.849 58.235 910.849 52.145V5.945H920.404Z"/>
<path d="M1039.45 79.13H1029.9L991.469 20.855V79.13H981.914V5.84H991.469L1029.9 64.01V5.84H1039.45V79.13Z"/>
<path d="M1078.53 5.945C1086.51 5.945 1093.4 7.45 1099.21 10.46C1105.09 13.4 1109.57 17.635 1112.65 23.165C1115.8 28.695 1117.38 35.205 1117.38 42.695C1117.38 50.185 1115.8 56.695 1112.65 62.225C1109.57 67.685 1105.09 71.885 1099.21 74.825C1093.4 77.695 1086.51 79.13 1078.53 79.13H1055.74V5.945H1078.53ZM1078.53 71.255C1087.98 71.255 1095.19 68.77 1100.16 63.8C1105.13 58.76 1107.61 51.725 1107.61 42.695C1107.61 33.595 1105.09 26.49 1100.05 21.38C1095.08 16.27 1087.91 13.715 1078.53 13.715H1065.3V71.255H1078.53Z"/>
</mask>
<path d="M31.305 79.865C26.475 79.865 22.135 79.025 18.285 77.345C14.505 75.595 11.53 73.215 9.36 70.205C7.19 67.125 6.07 63.59 6 59.6H16.185C16.535 63.03 17.935 65.935 20.385 68.315C22.905 70.625 26.545 71.78 31.305 71.78C35.855 71.78 39.425 70.66 42.015 68.42C44.675 66.11 46.005 63.17 46.005 59.6C46.005 56.8 45.235 54.525 43.695 52.775C42.155 51.025 40.23 49.695 37.92 48.785C35.61 47.875 32.495 46.895 28.575 45.845C23.745 44.585 19.86 43.325 16.92 42.065C14.05 40.805 11.565 38.845 9.465 36.185C7.435 33.455 6.42 29.815 6.42 25.265C6.42 21.275 7.435 17.74 9.465 14.66C11.495 11.58 14.33 9.2 17.97 7.52C21.68 5.84 25.915 5 30.675 5C37.535 5 43.135 6.715 47.475 10.145C51.885 13.575 54.37 18.125 54.93 23.795H44.43C44.08 20.995 42.61 18.545 40.02 16.445C37.43 14.275 34 13.19 29.73 13.19C25.74 13.19 22.485 14.24 19.965 16.34C17.445 18.37 16.185 21.24 16.185 24.95C16.185 27.61 16.92 29.78 18.39 31.46C19.93 33.14 21.785 34.435 23.955 35.345C26.195 36.185 29.31 37.165 33.3 38.285C38.13 39.615 42.015 40.945 44.955 42.275C47.895 43.535 50.415 45.53 52.515 48.26C54.615 50.92 55.665 54.56 55.665 59.18C55.665 62.75 54.72 66.11 52.83 69.26C50.94 72.41 48.14 74.965 44.43 76.925C40.72 78.885 36.345 79.865 31.305 79.865Z" stroke="white" stroke-width="10" mask="url(#path-1-outside-1)"/>
<path d="M79.281 13.715V38.18H105.951V46.055H79.281V71.255H109.101V79.13H69.726V5.84H109.101V13.715H79.281Z" stroke="white" stroke-width="10" mask="url(#path-1-outside-1)"/>
<path d="M160.204 41.435C162.864 41.855 165.279 42.94 167.449 44.69C169.689 46.44 171.439 48.61 172.699 51.2C174.029 53.79 174.694 56.555 174.694 59.495C174.694 63.205 173.749 66.565 171.859 69.575C169.969 72.515 167.204 74.86 163.564 76.61C159.994 78.29 155.759 79.13 150.859 79.13H123.559V5.945H149.809C154.779 5.945 159.014 6.785 162.514 8.465C166.014 10.075 168.639 12.28 170.389 15.08C172.139 17.88 173.014 21.03 173.014 24.53C173.014 28.87 171.824 32.475 169.444 35.345C167.134 38.145 164.054 40.175 160.204 41.435ZM133.114 37.55H149.179C153.659 37.55 157.124 36.5 159.574 34.4C162.024 32.3 163.249 29.395 163.249 25.685C163.249 21.975 162.024 19.07 159.574 16.97C157.124 14.87 153.589 13.82 148.969 13.82H133.114V37.55ZM150.019 71.255C154.779 71.255 158.489 70.135 161.149 67.895C163.809 65.655 165.139 62.54 165.139 58.55C165.139 54.49 163.739 51.305 160.939 48.995C158.139 46.615 154.394 45.425 149.704 45.425H133.114V71.255H150.019Z" stroke="white" stroke-width="10" mask="url(#path-1-outside-1)"/>
<path d="M231.214 62.855H199.294L193.414 79.13H183.334L209.794 6.365H220.819L247.174 79.13H237.094L231.214 62.855ZM228.484 55.085L215.254 18.125L202.024 55.085H228.484Z" stroke="white" stroke-width="10" mask="url(#path-1-outside-1)"/>
<path d="M281.91 79.865C277.08 79.865 272.74 79.025 268.89 77.345C265.11 75.595 262.135 73.215 259.965 70.205C257.795 67.125 256.675 63.59 256.605 59.6H266.79C267.14 63.03 268.54 65.935 270.99 68.315C273.51 70.625 277.15 71.78 281.91 71.78C286.46 71.78 290.03 70.66 292.62 68.42C295.28 66.11 296.61 63.17 296.61 59.6C296.61 56.8 295.84 54.525 294.3 52.775C292.76 51.025 290.835 49.695 288.525 48.785C286.215 47.875 283.1 46.895 279.18 45.845C274.35 44.585 270.465 43.325 267.525 42.065C264.655 40.805 262.17 38.845 260.07 36.185C258.04 33.455 257.025 29.815 257.025 25.265C257.025 21.275 258.04 17.74 260.07 14.66C262.1 11.58 264.935 9.2 268.575 7.52C272.285 5.84 276.52 5 281.28 5C288.14 5 293.74 6.715 298.08 10.145C302.49 13.575 304.975 18.125 305.535 23.795H295.035C294.685 20.995 293.215 18.545 290.625 16.445C288.035 14.275 284.605 13.19 280.335 13.19C276.345 13.19 273.09 14.24 270.57 16.34C268.05 18.37 266.79 21.24 266.79 24.95C266.79 27.61 267.525 29.78 268.995 31.46C270.535 33.14 272.39 34.435 274.56 35.345C276.8 36.185 279.915 37.165 283.905 38.285C288.735 39.615 292.62 40.945 295.56 42.275C298.5 43.535 301.02 45.53 303.12 48.26C305.22 50.92 306.27 54.56 306.27 59.18C306.27 62.75 305.325 66.11 303.435 69.26C301.545 72.41 298.745 74.965 295.035 76.925C291.325 78.885 286.95 79.865 281.91 79.865Z" stroke="white" stroke-width="10" mask="url(#path-1-outside-1)"/>
<path d="M365.376 5.945V13.715H345.426V79.13H335.871V13.715H315.816V5.945H365.376Z" stroke="white" stroke-width="10" mask="url(#path-1-outside-1)"/>
<path d="M386.693 5.945V79.13H377.138V5.945H386.693Z" stroke="white" stroke-width="10" mask="url(#path-1-outside-1)"/>
<path d="M446.238 62.855H414.318L408.438 79.13H398.358L424.818 6.365H435.843L462.198 79.13H452.118L446.238 62.855ZM443.508 55.085L430.278 18.125L417.048 55.085H443.508Z" stroke="white" stroke-width="10" mask="url(#path-1-outside-1)"/>
<path d="M531.27 79.13H521.715L483.285 20.855V79.13H473.73V5.84H483.285L521.715 64.01V5.84H531.27V79.13Z" stroke="white" stroke-width="10" mask="url(#path-1-outside-1)"/>
<path d="M630.991 27.155C628.961 22.885 626.021 19.595 622.171 17.285C618.321 14.905 613.841 13.715 608.731 13.715C603.621 13.715 599.001 14.905 594.871 17.285C590.811 19.595 587.591 22.955 585.211 27.365C582.901 31.705 581.746 36.745 581.746 42.485C581.746 48.225 582.901 53.265 585.211 57.605C587.591 61.945 590.811 65.305 594.871 67.685C599.001 69.995 603.621 71.15 608.731 71.15C615.871 71.15 621.751 69.015 626.371 64.745C630.991 60.475 633.686 54.7 634.456 47.42H605.266V39.65H644.641V47C644.081 53.02 642.191 58.55 638.971 63.59C635.751 68.56 631.516 72.515 626.266 75.455C621.016 78.325 615.171 79.76 608.731 79.76C601.941 79.76 595.746 78.185 590.146 75.035C584.546 71.815 580.101 67.37 576.811 61.7C573.591 56.03 571.981 49.625 571.981 42.485C571.981 35.345 573.591 28.94 576.811 23.27C580.101 17.53 584.546 13.085 590.146 9.935C595.746 6.715 601.941 5.105 608.731 5.105C616.501 5.105 623.361 7.03 629.311 10.88C635.331 14.73 639.706 20.155 642.436 27.155H630.991Z" stroke="white" stroke-width="10" mask="url(#path-1-outside-1)"/>
<path d="M695.81 79.13L678.38 49.205H666.83V79.13H657.275V5.945H680.9C686.43 5.945 691.085 6.89 694.865 8.78C698.715 10.67 701.585 13.225 703.475 16.445C705.365 19.665 706.31 23.34 706.31 27.47C706.31 32.51 704.84 36.955 701.9 40.805C699.03 44.655 694.69 47.21 688.88 48.47L707.255 79.13H695.81ZM666.83 41.54H680.9C686.08 41.54 689.965 40.28 692.555 37.76C695.145 35.17 696.44 31.74 696.44 27.47C696.44 23.13 695.145 19.77 692.555 17.39C690.035 15.01 686.15 13.82 680.9 13.82H666.83V41.54Z" stroke="white" stroke-width="10" mask="url(#path-1-outside-1)"/>
<path d="M764.417 62.855H732.497L726.617 79.13H716.537L742.997 6.365H754.022L780.377 79.13H770.297L764.417 62.855ZM761.687 55.085L748.457 18.125L735.227 55.085H761.687Z" stroke="white" stroke-width="10" mask="url(#path-1-outside-1)"/>
<path d="M849.449 79.13H839.894L801.464 20.855V79.13H791.909V5.84H801.464L839.894 64.01V5.84H849.449V79.13Z" stroke="white" stroke-width="10" mask="url(#path-1-outside-1)"/>
<path d="M875.292 71.36H900.912V79.13H865.737V5.945H875.292V71.36Z" stroke="white" stroke-width="10" mask="url(#path-1-outside-1)"/>
<path d="M920.404 5.945V52.25C920.404 58.76 921.979 63.59 925.129 66.74C928.349 69.89 932.794 71.465 938.464 71.465C944.064 71.465 948.439 69.89 951.589 66.74C954.809 63.59 956.419 58.76 956.419 52.25V5.945H965.974V52.145C965.974 58.235 964.749 63.38 962.299 67.58C959.849 71.71 956.524 74.79 952.324 76.82C948.194 78.85 943.539 79.865 938.359 79.865C933.179 79.865 928.489 78.85 924.289 76.82C920.159 74.79 916.869 71.71 914.419 67.58C912.039 63.38 910.849 58.235 910.849 52.145V5.945H920.404Z" stroke="white" stroke-width="10" mask="url(#path-1-outside-1)"/>
<path d="M1039.45 79.13H1029.9L991.469 20.855V79.13H981.914V5.84H991.469L1029.9 64.01V5.84H1039.45V79.13Z" stroke="white" stroke-width="10" mask="url(#path-1-outside-1)"/>
<path d="M1078.53 5.945C1086.51 5.945 1093.4 7.45 1099.21 10.46C1105.09 13.4 1109.57 17.635 1112.65 23.165C1115.8 28.695 1117.38 35.205 1117.38 42.695C1117.38 50.185 1115.8 56.695 1112.65 62.225C1109.57 67.685 1105.09 71.885 1099.21 74.825C1093.4 77.695 1086.51 79.13 1078.53 79.13H1055.74V5.945H1078.53ZM1078.53 71.255C1087.98 71.255 1095.19 68.77 1100.16 63.8C1105.13 58.76 1107.61 51.725 1107.61 42.695C1107.61 33.595 1105.09 26.49 1100.05 21.38C1095.08 16.27 1087.91 13.715 1078.53 13.715H1065.3V71.255H1078.53Z" stroke="white" stroke-width="10" mask="url(#path-1-outside-1)"/>
</svg>
